<?xml version="1.0" encoding="utf-8"?>
<!-- Generator: Adobe Illustrator 22.1.0, SVG Export Plug-In . SVG Version: 6.00 Build 0)  -->
<svg version="1.1" id="Layer_1" xmlns="http://www.w3.org/2000/svg" xmlns:xlink="http://www.w3.org/1999/xlink" x="0px" y="0px"
	 viewBox="0 0 251 768" style="enable-background:new 0 0 251 768;" xml:space="preserve">
<style type="text/css">
	.st0{fill:#FFCC66;}
	.st1{opacity:0.57;fill:#FFFFFF;}
	.st2{fill:#D84C4C;}
	.st3{fill:#AD4040;}
</style>
<rect x="140.7" y="450.9" class="st0" width="110.6" height="32.9"/>
<rect x="182" y="417.9" transform="matrix(0.7071 -0.7071 0.7071 0.7071 -278.8924 273.0765)" class="st1" width="16.4" height="110.6"/>
<rect x="200.6" y="403.4" transform="matrix(0.7071 -0.7071 0.7071 0.7071 -264.3628 279.0948)" class="st1" width="8.2" height="110.6"/>
<path class="st2" d="M0,0.2h251.3v450.8H140.7C59.4,394.9,0,218.5,0,9.5C0,6.4,0,3.3,0,0.2z"/>
<path class="st3" d="M42.6,0.2h208.7v450.8h-68C102,394.9,42.6,218.5,42.6,9.5C42.6,6.4,42.6,3.3,42.6,0.2z"/>
<path class="st2" d="M80.9,0.2h170.4v450.8h-29.7C140.2,394.9,80.9,218.5,80.9,9.5C80.9,6.4,80.9,3.3,80.9,0.2z"/>
<path class="st2" d="M140.7,9.5c0-3.1,0-6.2,0-9.3h110.6v423.5C185.8,349.1,140.7,191.7,140.7,9.5z"/>
<path class="st3" d="M156.2,0.2h95.1v450.8h-0.9c-54.5-56-94.2-232.5-94.2-441.5C156.2,6.4,156.2,3.3,156.2,0.2z"/>
<path class="st2" d="M0,768h251.3V483.8H140.7C59.4,519.1,0,630.4,0,762.1C0,764.1,0,766.1,0,768z"/>
<path class="st3" d="M42.6,768h208.7V483.8h-68C102,519.1,42.6,630.4,42.6,762.1C42.6,764.1,42.6,766.1,42.6,768z"/>
<path class="st2" d="M80.9,768h170.4V483.8h-29.7C140.2,519.1,80.9,630.4,80.9,762.1C80.9,764.1,80.9,766.1,80.9,768z"/>
<path class="st2" d="M140.7,762.1c0,2,0,3.9,0,5.9h110.6V501C185.8,548,140.7,647.3,140.7,762.1z"/>
<path class="st3" d="M156.2,768h95.1V483.8h-0.9c-54.5,35.3-94.2,146.6-94.2,278.3C156.2,764.1,156.2,766.1,156.2,768z"/>
</svg>
