<?xml version="1.0" encoding="utf-8"?>
<!-- Generator: Adobe Illustrator 22.1.0, SVG Export Plug-In . SVG Version: 6.00 Build 0)  -->
<svg version="1.1" id="Layer_1" xmlns="http://www.w3.org/2000/svg" xmlns:xlink="http://www.w3.org/1999/xlink" x="0px" y="0px"
	 viewBox="0 0 170 1175.1" style="enable-background:new 0 0 170 1175.1;" xml:space="preserve">
<style type="text/css">
	.st0{fill:#D84C4C;}
	.st1{opacity:0.5;}
	.st2{fill:#FFCC66;}
	.st3{opacity:0.12;}
</style>
<path class="st0" d="M85,883v216.4v37.9v18.5c10.4,11.7,25.6,19.2,42.5,19.2s32.1-7.5,42.5-19.2v-18.5v-37.9V883H85z"/>
<path class="st0" d="M0,883v216.4v37.9v18.5c10.4,11.7,25.6,19.2,42.5,19.2s32.1-7.5,42.5-19.2v-18.5v-37.9V883H0z"/>
<path class="st1" d="M85,883H0v216.4v37.9v18.5c10.4,11.7,25.6,19.2,42.5,19.2c16.9,0,32.1-7.5,42.5-19.2
	c10.4,11.7,25.6,19.2,42.5,19.2s32.1-7.5,42.5-19.2v-18.5v-37.9V883H85z"/>
<path class="st0" d="M85,0H0v1082.3v37.9v18.4c10.4,11.7,25.6,19.2,42.5,19.2c16.9,0,32.1-7.5,42.5-19.2
	c10.4,11.7,25.6,19.2,42.5,19.2s32.1-7.5,42.5-19.2v-18.5v-37.9V0H85z"/>
<g>
	<path class="st2" d="M127.5,1147.7c-18.9,0-35.2-11.3-42.5-27.6c-7.4,16.2-23.6,27.6-42.5,27.6S7.3,1136.4,0,1120.1v18.5
		c10.4,11.7,25.6,19.2,42.5,19.2c16.9,0,32.1-7.5,42.5-19.2c10.4,11.7,25.6,19.2,42.5,19.2s32.1-7.5,42.5-19.2v-18.5
		C162.6,1136.4,146.4,1147.7,127.5,1147.7z"/>
	<path class="st2" d="M127.5,1090c-18.9,0-35.2-11.3-42.5-27.6c-7.4,16.2-23.6,27.6-42.5,27.6S7.3,1078.6,0,1062.4v18.5
		c10.4,11.7,25.6,19.2,42.5,19.2c16.9,0,32.1-7.5,42.5-19.2c10.4,11.7,25.6,19.2,42.5,19.2s32.1-7.5,42.5-19.2v-18.5
		C162.6,1078.6,146.4,1090,127.5,1090z"/>
</g>
<path class="st3" d="M85,0v1082.3v37.9v18.4c10.4,11.7,25.6,19.2,42.5,19.2s32.1-7.5,42.5-19.2v-18.5v-37.9V0H85z"/>
</svg>
