<?xml version="1.0" encoding="utf-8"?>
<!-- Generator: Adobe Illustrator 22.1.0, SVG Export Plug-In . SVG Version: 6.00 Build 0)  -->
<svg version="1.1" id="Layer_1" xmlns="http://www.w3.org/2000/svg" xmlns:xlink="http://www.w3.org/1999/xlink" x="0px" y="0px"
	 viewBox="0 0 251.3 767.8" style="enable-background:new 0 0 251.3 767.8;" xml:space="preserve">
<style type="text/css">
	.st0{fill:#FFCC66;}
	.st1{opacity:0.57;fill:#FFFFFF;enable-background:new    ;}
	.st2{fill:#D84C4C;}
	.st3{fill:#AD4040;}
</style>
<rect y="445" class="st0" width="110.6" height="44.2"/>
<rect x="5.8" y="464.8" transform="matrix(0.7071 -0.7071 0.7071 0.7071 -316.5649 181.7467)" class="st1" width="110.6" height="16.4"/>
<rect x="-8.7" y="454.4" transform="matrix(0.7071 -0.7071 0.7071 0.7071 -310.5342 167.2469)" class="st1" width="110.6" height="8.2"/>
<path class="st2" d="M251.3,0H0v450.8h110.6c81.3-56,140.7-232.5,140.7-441.5C251.3,6.2,251.3,3.1,251.3,0z"/>
<path class="st3" d="M208.7,0H0v450.8h68c81.3-56,140.7-232.5,140.7-441.5C208.7,6.2,208.7,3.1,208.7,0z"/>
<path class="st2" d="M170.4,0H0v450.8h29.7c81.3-56,140.7-232.5,140.7-441.5C170.4,6.2,170.4,3.1,170.4,0z"/>
<path class="st2" d="M110.6,9.3c0-3.1,0-6.2,0-9.3H0v423.5C65.5,348.9,110.6,191.5,110.6,9.3z"/>
<path class="st3" d="M95.1,0H0v450.8h0.9c54.5-56,94.2-232.5,94.2-441.5C95.1,6.2,95.1,3.1,95.1,0z"/>
<path class="st2" d="M251.3,767.8H0V483.6h110.6c81.3,35.3,140.7,146.6,140.7,278.3C251.3,763.9,251.3,765.9,251.3,767.8z"/>
<path class="st3" d="M208.7,767.8H0V483.6h68c81.3,35.3,140.7,146.6,140.7,278.3C208.7,763.9,208.7,765.9,208.7,767.8z"/>
<path class="st2" d="M170.4,767.8H0V483.6h29.7c81.3,35.3,140.7,146.6,140.7,278.3C170.4,763.9,170.4,765.9,170.4,767.8z"/>
<path class="st2" d="M110.6,761.9c0,2,0,3.9,0,5.9H0v-267C65.5,547.8,110.6,647.1,110.6,761.9z"/>
<path class="st3" d="M95.1,767.8H0V483.6h0.9c54.5,35.3,94.2,146.6,94.2,278.3C95.1,763.9,95.1,765.9,95.1,767.8z"/>
</svg>
