<?xml version="1.0" encoding="utf-8"?>
<!-- Generator: Adobe Illustrator 22.1.0, SVG Export Plug-In . SVG Version: 6.00 Build 0)  -->
<svg version="1.1" id="Layer_1" xmlns="http://www.w3.org/2000/svg" xmlns:xlink="http://www.w3.org/1999/xlink" x="0px" y="0px"
	 viewBox="0 0 91.8 171.1" style="enable-background:new 0 0 91.8 171.1;" xml:space="preserve">
<style type="text/css">
	.st0{fill:#A86F3B;}
	.st1{fill:#8C5A2D;}
	.st2{fill:#C38241;}
	.st3{fill:#E1A35E;}
</style>
<rect x="2" y="8.9" transform="matrix(-1 -1.224647e-16 1.224647e-16 -1 91.85 180.0159)" class="st0" width="87.9" height="162.2"/>
<rect class="st1" width="91.8" height="171.1"/>
<rect x="2" class="st2" width="87.9" height="8.9"/>
<g>
	<path class="st3" d="M80.5,8.9C83.8,70.4,67.9,99,51,129.1c-7.1,12.8-14.5,25.9-20.5,42h25.4c9.6-45.6,14.6-52.1,17.9-52.1
		c0.1,0,0.2,0,0.2,0c3.2,0.3,7.2,6.4,9,52.1h6.8v-20.7c-4.9-31.8-11.1-70.9,0-99.2V8.9H80.5z"/>
	<path class="st3" d="M24.3,58.6c2.6,0.2,8.2-6,18.7-49.8H15C17.3,51.7,21.8,58.4,24.3,58.6z"/>
	<path class="st3" d="M78.9,8.9h-18c-1.3,39.7-11.4,61.8-21,83.1c-9.8,21.6-19.1,41.9-20.4,79.1h9.4l0.1-0.3
		c6.1-16.3,13.6-29.7,20.8-42.6C66.4,98.4,82.3,70.1,78.9,8.9z"/>
	<path class="st3" d="M74,120.6c-2.3,0-7.2,6.6-16.4,50.5h24C79.9,127.4,76.1,120.7,74,120.6z"/>
	<path class="st3" d="M89.9,140.2V55.8C81.9,80.4,85.5,112.2,89.9,140.2z"/>
	<path class="st3" d="M5.9,9L5.9,9L2,8.9v162.2h0.1h3.8V171c0.1-0.5,5.8-43.9,9.7-76.7C19.4,61.7,6.1,9.6,5.9,9z"/>
	<path class="st3" d="M59.2,8.9H44.6v0.2c-11,46.4-16.9,51.5-20.4,51.1c-3.4-0.3-8.2-6-10.7-51.3h-6c0.9,3.5,13.4,53.7,9.6,85.6
		c-3.8,32-9.4,74.3-9.7,76.6h10.4c1.3-37.4,11.1-59,20.5-79.7C48,70.1,58,48.3,59.2,8.9z"/>
</g>
</svg>
