<?xml version="1.0" encoding="utf-8"?>
<!-- Generator: Adobe Illustrator 22.1.0, SVG Export Plug-In . SVG Version: 6.00 Build 0)  -->
<svg version="1.1" id="Layer_1" xmlns="http://www.w3.org/2000/svg" xmlns:xlink="http://www.w3.org/1999/xlink" x="0px" y="0px"
	 viewBox="0 0 274.1 445.3" style="enable-background:new 0 0 274.1 445.3;" xml:space="preserve">
<style type="text/css">
	.st0{fill:#EFE0D7;}
	.st1{fill:#CEC0BA;}
	.st2{fill:none;stroke:#B2A29D;stroke-width:2;stroke-linecap:round;stroke-linejoin:round;stroke-miterlimit:10;}
	.st3{fill:#6B411F;}
	.st4{fill:none;stroke:#CEC0BA;stroke-width:2;stroke-linecap:round;stroke-linejoin:round;stroke-miterlimit:10;}
	.st5{fill:#BF9494;}
	.st6{fill:#A37F7F;}
	.st7{fill:#FFFFFF;}
	.st8{fill:#333333;}
	.st9{fill:#59412F;}
	.st10{fill:none;stroke:#463326;stroke-width:2;stroke-linecap:round;stroke-linejoin:round;stroke-miterlimit:10;}
	.st11{fill:#463326;}
	.st12{fill:none;stroke:#4F392B;stroke-width:2;stroke-linecap:round;stroke-linejoin:round;stroke-miterlimit:10;}
	.st13{fill:#5C8AC7;}
	.st14{fill:none;stroke:#4673A8;stroke-width:2;stroke-linecap:round;stroke-miterlimit:10;}
	.st15{fill:none;stroke:#423B37;stroke-width:3;stroke-linecap:round;stroke-linejoin:round;stroke-miterlimit:10;}
	.st16{fill:#4C3826;}
	.st17{fill:#DED3CD;}
	.st18{fill:#1D82B0;}
	.st19{fill:#89AA5E;}
	.st20{fill:#352B27;}
	.st21{fill:#1E92D1;}
	.st22{fill:#F2F2D6;}
	.st23{fill:none;stroke:#352B27;stroke-width:8;stroke-miterlimit:10;}
	.st24{fill:#B9BAB9;}
	.st25{fill:#8B8B8C;}
	.st26{fill:#99C667;}
	.st27{fill:#6B574B;}
	.st28{fill:#3D312B;}
	.st29{fill:none;stroke:#EFDF99;stroke-width:5;stroke-linecap:round;stroke-miterlimit:10;}
	.st30{fill:#443731;}
</style>
<rect x="94.4" y="336.3" transform="matrix(0.9935 -0.1137 0.1137 0.9935 -47.5938 19.9146)" class="st0" width="112.9" height="181.9"/>
<g id="head">
	<path class="st1" d="M213.3,148.1c0,0,21.9-2.7,10.4-17.2c0,0,11.6-17.3-3.5-18.1c-15.2-0.9-8.3,18.1-8.3,18.1L213.3,148.1z"/>
	<path class="st0" d="M124.9,70.9c23.3-11.9,81.8-12.4,92,67c13.3,109-127.2,90.9-156,52c-5.1-8.6,4.5-11.9,4.5-11.9
		s-8.9-3.7-9.1-6.2C53.2,131.3,78.9,94.4,124.9,70.9z"/>
	<path class="st2" d="M220.8,135.5c0,0-0.7-2.8-2.7-4.1c0,0,1.8-3.1,1.7-5"/>
</g>
<g id="hair">
	<path class="st3" d="M199.9,137.5c0,0.9,0.7,1.6,1.5,1.6h15.1l0.4-0.2c0-0.3-0.1-0.6-0.1-0.9c-2.5-19.6-8-34.4-15.2-45.3l-15.3,0.5
		C200.9,92.4,200.2,129.4,199.9,137.5z"/>
</g>
<g id="lip">
	<path class="st4" d="M65.5,178.1c0,0,58.2,0,107.1,5.8"/>
	<g>
		<path class="st1" d="M170.7,190.7c0.1-0.5,0.2-1,0.3-1.6c0.1-0.5,0.2-1,0.3-1.6c0.1-1,0.3-2.1,0.3-3.1c0.1-1,0-2.1-0.1-3.1
			l-0.1-0.8l-0.1-0.8c0-0.5-0.2-1-0.3-1.6V178c0-0.3,0.2-0.5,0.4-0.6c0.2,0,0.4,0.1,0.5,0.2c0.7,0.9,1.3,2,1.6,3.2s0.4,2.4,0.4,3.5
			c-0.1,2.4-0.8,4.7-2.2,6.6c-0.2,0.2-0.5,0.3-0.7,0.1C170.7,191.2,170.6,191,170.7,190.7L170.7,190.7z"/>
	</g>
</g>
<g id="nose">
	<path class="st5" d="M128.3,147.3c-0.5,9.3,0.3,20.3-10.2,18.8s-11.8-8.7-11-17.7s6.8-29,17.5-29S128.7,138,128.3,147.3z"/>
	<path class="st6" d="M113.9,154c0,1.3-0.7,2.5-2,2.5s-2.2-0.7-2.2-2s0.9-2.3,2.2-2.3C113.2,152.2,113.9,152.7,113.9,154z"/>
	<path class="st6" d="M113,146.3c-0.8-0.7-1.2-1.7-0.5-2.5s1.5-1,2.3-0.3s1,1.3,0.3,2S113.8,147,113,146.3z"/>
	<path class="st6" d="M119.2,154.3c-1.2,0.2-1.8-0.5-2-1.7s-0.2-1.9,1-2c1.2-0.2,2,0.6,2.2,1.8C120.4,153.5,120.3,154.1,119.2,154.3
		z"/>
</g>
<g id="eyes">
	<path class="st7" d="M92.5,125.4c-3.7,8.4-8.9,20.4-19.2,17.5s-10.5-20.7-6.8-29.1c3.7-8.4,16.8-15.8,25.2-12.3
		S96.2,117,92.5,125.4z"/>
	<path class="st7" d="M183.1,125.6c0.6,11.6-5.5,19.3-14.4,19.3c-9,0-11.9-6.8-11.9-19.3s3.4-19.4,12.3-19.4S182.5,114,183.1,125.6z
		"/>
	<path class="st8" d="M78.7,120.9c-0.8,1.9-1.8,4-3.6,3.3s-2.4-4.3-1.7-6.1c0.8-1.9,3.2-4.3,5.1-3.6S79.5,119.1,78.7,120.9z"/>
	<path class="st8" d="M178.8,124.9c0,3-2.3,5.5-4,5.5s-2.4-2.5-2.4-5.5s1-5.5,2.6-5.5S178.8,121.9,178.8,124.9z"/>
</g>
<g id="hat">
	<g id="Layer_8">
		<path class="st9" d="M205.6,71.4c0,0,20.2-48.5,0-56.7S126.3,39.6,87.1,78.9C87.1,78.9,169.8,95.1,205.6,71.4z"/>
	</g>
	<g id="Layer_10">
		<polyline class="st10" points="104.3,81.6 163.6,67.2 144.2,46.7 182.6,42.2 174.7,24.6 203.9,18.6 		"/>
		<polyline class="st10" points="153.3,84.2 127,59.6 175.7,51.1 160.4,34 194.9,27.5 190.7,16.4 		"/>
		<path class="st11" d="M154.4,84.1c9.8-17.9,43-56.6,53.1-68.2c0-0.1,0.1-0.1,0.1-0.2c-0.6-0.3-1.2-0.7-1.8-0.9
			c-10.3,11.8-43.3,50.3-53.2,68.3c-17.2,0.6-34.3-0.9-46.2-2.4c8.7-8.8,56-55.3,91.3-67.3c-2.3,0-4.9,0.3-7.6,0.8
			c-38.4,16.9-86.1,66-86.6,66.5c-0.2,0.2-0.2,0.4-0.3,0.6C116.3,83.1,135.3,84.9,154.4,84.1z"/>
	</g>
	<g id="Layer_14">
		<path class="st12" d="M211.9,52.1c1.2-5,2.3-10.5,2.6-15.7"/>
	</g>
	<g id="Layer_15">
		<path class="st13" d="M252.8,41.9c0.3,0.2,0.7,0.1,0.9-0.1c8.1-8.1,7.9-23.1-11.5-20.5c-22,2.9-41.3,28.6-47.2,37.2
			c-0.5,0.7,0.3,1.5,1,1.1c11.4-6.2,29.6-12.6,45.3-12.9c0.5,0,0.8-0.4,0.8-0.8c-0.1-1.5-0.3-4.7-0.9-6.7c-0.2-0.6,0.4-1.1,0.9-1
			C244.4,38.7,248.8,39.8,252.8,41.9z"/>
		<path class="st14" d="M196,58.8c0,0,24.3-22.8,56.3-29.5"/>
	</g>
	<g id="Layer_9">
		<polyline class="st15" points="115,54.4 143,64.6 210.6,56.7 		"/>
		<line class="st15" x1="145.5" y1="61.6" x2="138.2" y2="68.7"/>
		<line class="st15" x1="141.4" y1="61.3" x2="147" y2="70"/>
	</g>
	<g id="Layer_6">
		<path class="st16" d="M76.9,92.3c14.9,2.3,77.6,11.3,138.5,6.5c1.5-0.1,2.6-1.3,2.6-2.8c0.1-4.1-0.2-12.9-3.5-26.3
			c-0.4-1.4-1.8-2.4-3.2-2.1c-14.2,2.5-84,14-129.6,7.4c-1.4-0.2-2.7,0.6-3.1,1.9l-3.9,11.7C74.1,90.3,75.2,92,76.9,92.3z"/>
	</g>
	<g id="Layer_13">
	</g>
</g>
<g id="Layer_22">
</g>
<g id="Layer_21">
	<circle class="st17" cx="86.9" cy="322.4" r="23.5"/>
	<circle class="st18" cx="86.8" cy="254" r="23.6"/>
	<rect x="63.1" y="254" class="st18" width="47.3" height="68.3"/>
	<rect x="63" y="309.7" class="st19" width="47.4" height="4"/>
	<path class="st20" d="M111.1,313.7h-48c-2.4,0-4.3,1.9-4.3,4.3s1.9,4.3,4.3,4.3h48c2.4,0,4.3-1.9,4.3-4.3S113.4,313.7,111.1,313.7z
		"/>
</g>
<g id="Layer_23">
	<path class="st21" d="M223.8,369.3c-4-5.6-13.1-19.1-15.4-31c-3-15.3-1.3-100.1-1.3-100.1s-124.6,0.1-125.8,0c0,1,0.1,3.1,0.2,6
		h13.3c-4,10.3-2,104-2,104c-3.9,0.9-8.6,1.4-13.3,1.6c-3.9,9.4-9.6,19.2-12,23c-0.5,0.7,0.1,1.7,0.9,1.7
		c16.2,0.6,128,4.7,154.1-1.7C224.1,372.6,224.8,370.7,223.8,369.3z"/>
	<path class="st8" d="M132.1,254.8c-0.8,0.6-1.2,0.8-1.8,0s-0.9-2-0.1-2.7c0.8-0.6,1.5-0.1,2.2,0.7
		C132.9,253.6,132.9,254.2,132.1,254.8z"/>
	<path class="st8" d="M127.4,259.2c-0.8,0.6-1.4,0.4-2-0.4s-1.1-1.2-0.3-1.8c0.8-0.6,1.4-0.8,2.1,0
		C127.8,257.8,128.2,258.6,127.4,259.2z"/>
	<path class="st22" d="M119.6,258.3c4.3-3.5,16-12.3,24-19c-19.3,0.2-37.6,0.4-50.4,0.5c5.2,4.6,18,13.2,23.3,18.4
		C117.3,259,118.8,259,119.6,258.3z"/>
	<path class="st23" d="M82.4,345.9c26.8,11,66.3,6.6,119.5,2.1"/>
	<path class="st24" d="M109.3,364.7l18.3,0.5c0.4,0,0.9-0.2,1.2-0.5l6.6-5.9c0.6-0.5,0.9-1.3,0.9-2.2l0.2-7.9c0-0.9-0.3-1.7-0.8-2.2
		l-5.3-5.2c-0.3-0.3-0.8-0.5-1.2-0.5l-17.3-0.5c-0.3,0-0.6,0.1-0.9,0.2l-6.8,4c-0.7,0.4-1.2,1.4-1.2,2.4l-0.2,8.4
		c0,0.7,0.2,1.3,0.5,1.8l4.4,6.6C108.2,364.4,108.7,364.7,109.3,364.7z"/>
	<path class="st25" d="M113.5,358.3l11.5-0.1c0.4,0,0.7-0.1,1.1-0.3l2.9-1.8c0.7-0.4,1.2-1.3,1.2-2.2l0.1-2.9c0-0.7-0.2-1.4-0.7-2
		l-2.4-2.7c-0.4-0.5-1-0.7-1.5-0.8l-11-0.3c-0.4,0-0.8,0.1-1.2,0.3l-3.2,2.1c-0.7,0.5-1.2,1.4-1.2,2.3l0.1,3.3
		c0,0.7,0.2,1.3,0.6,1.8l2,2.4C112.3,358,112.9,358.3,113.5,358.3z"/>
	<path class="st9" d="M108.1,239.3H80.4c0.6,20.5,3.5,86.8,2.7,97.6c-0.3,3.7-1.7,8.3-3.7,13c4.7-0.3,17.7,1.2,21.7,0.3
		C101.1,350.2,104.1,249.7,108.1,239.3z"/>
	<path class="st26" d="M206.6,247.2c0,0-126.3-2.6-128.4-5.2s-1.6-14.2,8.8-13.3c0,0-17.2-7.9-2.3-14.8c14.8-6.9,119,5.6,119,5.6
		L206.6,247.2z"/>
	<path class="st9" d="M150.8,351.6c0,0,33.6,4,57.9,2c4.3-0.4,7.4-4.4,6.5-8.7c-2.1-10.5-5.1-32-4.4-67c0.2-10.5,0.1-19.5-0.3-27.1
		c-23.8-2.1-40.7-2.7-50.7-2.8C155.9,275.6,151,316.9,150.8,351.6z"/>
	<path class="st27" d="M203.8,211.6c-4.5,0-31.5,0.2-38.9,5.3c-0.2,0.1-0.3,0.4-0.4,0.6c-0.4,2.2-2.4,13.9-4.7,30.5
		c10,0.1,26.9,0.7,50.7,2.8c-1.2-25.9-4.8-36.2-5.8-38.6C204.6,211.8,204.2,211.6,203.8,211.6z"/>
</g>
<g id="Layer_25">
</g>
<g id="Layer_24">
</g>
<g id="Layer_20">
	<circle class="st0" cx="206.9" cy="322.4" r="23.5"/>
	<circle class="st21" cx="206.8" cy="254" r="23.6"/>
	<rect x="183.2" y="254" class="st21" width="47.3" height="68.3"/>
	<path class="st28" d="M209.1,321.5v-91.1c-0.8-0.1-1.5-0.1-2.3-0.1c-0.6,0-1.1,0-1.7,0.1v91.2h4V321.5z"/>
	<line class="st29" x1="200" y1="256.8" x2="215.4" y2="251.9"/>
	<line class="st29" x1="201.7" y1="270.9" x2="212.1" y2="273.2"/>
	<line class="st29" x1="201.8" y1="294.1" x2="211.4" y2="289.4"/>
	<rect x="183.1" y="309.7" class="st26" width="47.4" height="4"/>
	<path class="st30" d="M231.1,313.7h-48c-2.4,0-4.3,1.9-4.3,4.3s1.9,4.3,4.3,4.3h48c2.4,0,4.3-1.9,4.3-4.3
		C235.4,315.6,233.5,313.7,231.1,313.7z"/>
</g>
</svg>
